<svg width="43" height="43" viewBox="0 0 43 43" fill="none" xmlns="http://www.w3.org/2000/svg">
<path d="M21.4999 4.57996C30.8445 4.57996 38.4198 12.1553 38.4198 21.4999C38.4198 30.8445 30.8445 38.4198 21.4999 38.4198C12.1553 38.4198 4.57996 30.8445 4.57996 21.4999C4.58 12.1553 12.1553 4.58 21.4999 4.57996Z" stroke="#908CFF" stroke-width="2" stroke-linecap="round"/>
<path d="M21.5 11.75C26.8848 11.75 31.25 16.1152 31.25 21.5C31.25 26.8848 26.8848 31.25 21.5 31.25C16.1152 31.25 11.75 26.8848 11.75 21.5C11.75 16.1152 16.1152 11.75 21.5 11.75Z" stroke="#908CFF" stroke-width="2" stroke-linecap="round"/>
<path d="M21.5001 18.92C22.925 18.9201 24.0802 20.0753 24.0802 21.5001C24.0802 22.925 22.925 24.0802 21.5001 24.0802C20.0753 24.0802 18.9201 22.925 18.92 21.5001C18.92 20.0752 20.0752 18.92 21.5001 18.92Z" stroke="#908CFF" stroke-width="2" stroke-linecap="round"/>
</svg>
