<svg width="72" height="64" viewBox="0 0 72 64" fill="none" xmlns="http://www.w3.org/2000/svg">
<path d="M61.22 45.643C55.8441 55.7529 44.9565 62.67 32.3944 62.67C14.5017 62.67 0 48.6419 0 31.3366C0 14.0312 14.5017 0 32.3944 0C44.9501 0 55.8409 6.91087 61.2135 17.0176L54.4217 20.3355C50.3033 12.6272 41.9857 7.35804 32.3944 7.35804C18.7041 7.35804 7.60967 18.0933 7.60967 31.3334C7.60967 44.5735 18.7074 55.3088 32.3944 55.3088C41.9728 55.3088 50.2872 50.0522 54.4088 42.3564L61.22 45.643Z" fill="white"/>
<path d="M48.2968 39.3803C45.2971 44.9189 39.2976 48.7 32.3898 48.7C22.4759 48.7 14.44 40.9252 14.44 31.3334C14.44 21.7416 22.4759 13.97 32.3898 13.97C39.3041 13.97 45.3035 17.7541 48.3 23.2959L42.8016 25.9699C40.8201 22.3702 36.8991 19.9215 32.3898 19.9215C25.8764 19.9215 20.5946 25.0317 20.5946 31.3334C20.5946 37.6352 25.8764 42.7454 32.3898 42.7454C36.8862 42.7454 40.7942 40.3091 42.7822 36.7313L48.2968 39.3834V39.3803Z" fill="white"/>
<path d="M35.12 31.3316L71.84 48.7301V13.9301L35.12 31.3316Z" fill="white"/>
<path d="M61.3 16.97L61.2063 17.0169L54.4137 20.3362L54.32 20.38" fill="white"/>
</svg>
